<svg width="79" height="19" viewBox="0 0 79 19" fill="none" xmlns="http://www.w3.org/2000/svg">
<path d="M0 18.6906V0.644504H7.75056C9.01208 0.644504 10.0749 0.842152 10.9389 1.23745C11.803 1.61556 12.4597 2.15694 12.909 2.8616C13.3755 3.54907 13.6088 4.36545 13.6088 5.31072C13.6088 6.22162 13.4101 6.98643 13.0126 7.60516C12.6152 8.22388 12.0881 8.69652 11.4314 9.02307C10.792 9.34962 10.0835 9.54726 9.30585 9.61601L9.7206 9.30665C10.5674 9.34102 11.3105 9.56445 11.9499 9.97693C12.5893 10.3894 13.0904 10.9308 13.4533 11.6011C13.8335 12.2542 14.0236 12.976 14.0236 13.7666C14.0236 14.7463 13.7903 15.6056 13.3237 16.3446C12.8571 17.0837 12.1745 17.6594 11.2759 18.0719C10.3773 18.4844 9.28857 18.6906 8.00978 18.6906H0ZM3.88824 15.5455H7.36174C8.22579 15.5455 8.89111 15.3564 9.3577 14.9783C9.84157 14.583 10.0835 14.0158 10.0835 13.2768C10.0835 12.5378 9.83293 11.962 9.33178 11.5495C8.84791 11.137 8.17395 10.9308 7.30989 10.9308H3.88824V15.5455ZM3.88824 8.0692H7.0766C7.90609 8.0692 8.53685 7.88014 8.96887 7.50204C9.41818 7.12393 9.64284 6.59113 9.64284 5.90366C9.64284 5.21619 9.41818 4.6834 8.96887 4.30529C8.53685 3.91 7.89745 3.71235 7.05068 3.71235H3.88824V8.0692Z" fill="white"/>
<path d="M15.2532 18.6906V5.69742H19.1415V18.6906H15.2532ZM17.1974 4.20217C16.5061 4.20217 15.9445 4.00452 15.5125 3.60923C15.0804 3.21393 14.8644 2.71551 14.8644 2.11398C14.8644 1.49525 15.0804 0.988241 15.5125 0.592944C15.9445 0.197648 16.5061 0 17.1974 0C17.9059 0 18.4762 0.197648 18.9082 0.592944C19.3575 0.988241 19.5821 1.49525 19.5821 2.11398C19.5821 2.71551 19.3575 3.21393 18.9082 3.60923C18.4762 4.00452 17.9059 4.20217 17.1974 4.20217Z" fill="white"/>
<path d="M21.0125 18.6906V0.128901H24.9007V18.6906H21.0125Z" fill="white"/>
<path d="M32.5288 19C31.3709 19 30.3168 18.7078 29.3663 18.1235C28.4332 17.5391 27.6901 16.7399 27.1371 15.7259C26.6014 14.6947 26.3335 13.526 26.3335 12.2198C26.3335 10.8964 26.61 9.72773 27.163 8.7137C27.716 7.6825 28.4677 6.87472 29.4182 6.29037C30.3859 5.68883 31.4573 5.38806 32.6325 5.38806C33.5311 5.38806 34.3174 5.55133 34.9913 5.87788C35.6653 6.18725 36.2183 6.6427 36.6503 7.24423V0.128901H40.5386V18.6906H37.091L36.6503 17.0149C36.3911 17.3758 36.0714 17.711 35.6912 18.0204C35.3283 18.3125 34.8876 18.5445 34.3692 18.7164C33.8508 18.9055 33.2373 19 32.5288 19ZM33.5397 15.6228C34.1791 15.6228 34.7408 15.4767 35.2246 15.1845C35.7258 14.8924 36.106 14.4885 36.3652 13.9729C36.6417 13.4573 36.7799 12.8643 36.7799 12.194C36.7799 11.5237 36.6417 10.9308 36.3652 10.4152C36.106 9.89959 35.7258 9.4957 35.2246 9.20353C34.7408 8.91135 34.1791 8.76526 33.5397 8.76526C32.9176 8.76526 32.356 8.91135 31.8548 9.20353C31.3709 9.4957 30.9908 9.89959 30.7143 10.4152C30.4378 10.9308 30.2995 11.5152 30.2995 12.1683C30.2995 12.8385 30.4378 13.4401 30.7143 13.9729C30.9908 14.4885 31.3709 14.8924 31.8548 15.1845C32.356 15.4767 32.9176 15.6228 33.5397 15.6228Z" fill="white"/>
<path d="M46.8138 19C45.7251 19 44.8178 18.8281 44.092 18.4844C43.3835 18.1407 42.8564 17.6766 42.5108 17.0923C42.1825 16.4907 42.0183 15.829 42.0183 15.1072C42.0183 14.3338 42.2084 13.6549 42.5886 13.0706C42.986 12.469 43.5995 11.9964 44.429 11.6526C45.2585 11.2917 46.304 11.1113 47.5655 11.1113H50.728C50.728 10.5269 50.6502 10.0457 50.4947 9.66757C50.3564 9.28946 50.1231 9.00588 49.7948 8.81682C49.4664 8.62777 49.0171 8.53324 48.4469 8.53324C47.842 8.53324 47.3322 8.65355 46.9175 8.89417C46.5027 9.13478 46.2435 9.51289 46.1398 10.0285H42.4071C42.4935 9.10041 42.796 8.29263 43.3144 7.60516C43.8501 6.91768 44.5586 6.3763 45.44 5.981C46.3213 5.58571 47.3322 5.38806 48.4728 5.38806C49.717 5.38806 50.7971 5.5943 51.713 6.00678C52.6289 6.40208 53.3374 6.98643 53.8386 7.75984C54.357 8.53324 54.6162 9.4957 54.6162 10.6472V18.6906H51.376L50.9094 16.8087C50.7193 17.1352 50.4947 17.436 50.2355 17.711C49.9762 17.9688 49.6738 18.2008 49.3282 18.4071C48.9826 18.5961 48.6024 18.7422 48.1877 18.8453C47.7729 18.9484 47.315 19 46.8138 19ZM47.7729 16.0611C48.1877 16.0611 48.5506 15.9923 48.8616 15.8548C49.1727 15.7173 49.4405 15.5283 49.6652 15.2877C49.8898 15.047 50.0713 14.772 50.2095 14.4627C50.3651 14.1361 50.4774 13.7838 50.5465 13.4057V13.3799H48.0321C47.6001 13.3799 47.2372 13.4401 46.9434 13.5604C46.6669 13.6635 46.4595 13.8182 46.3213 14.0244C46.183 14.2307 46.1139 14.4713 46.1139 14.7463C46.1139 15.0384 46.183 15.2877 46.3213 15.4939C46.4768 15.6829 46.6756 15.829 46.9175 15.9322C47.1767 16.0181 47.4618 16.0611 47.7729 16.0611Z" fill="white"/>
<path d="M56.2922 18.6906V5.69742H59.7398L60.1027 8.0692C60.4483 7.51922 60.8544 7.04658 61.321 6.65129C61.7876 6.25599 62.3233 5.94663 62.9281 5.7232C63.5503 5.49977 64.2156 5.38806 64.9241 5.38806V9.48711H63.628C63.1096 9.48711 62.6344 9.54726 62.2023 9.66757C61.7876 9.77069 61.4247 9.95115 61.1136 10.209C60.8198 10.4668 60.5865 10.8191 60.4137 11.2659C60.2582 11.6956 60.1804 12.237 60.1804 12.8901V18.6906H56.2922Z" fill="white"/>
<path d="M71.9493 19C70.6013 19 69.4176 18.725 68.398 18.175C67.3784 17.6079 66.5748 16.8259 65.9873 15.829C65.417 14.815 65.1319 13.6549 65.1319 12.3487C65.1319 11.0081 65.417 9.81366 65.9873 8.76526C66.5576 7.71687 67.3525 6.8919 68.3721 6.29037C69.3917 5.68883 70.5754 5.38806 71.9233 5.38806C73.2367 5.38806 74.3859 5.67164 75.3709 6.23881C76.3559 6.80597 77.1249 7.57938 77.6779 8.55902C78.2482 9.52148 78.5333 10.6386 78.5333 11.9104C78.5333 12.0823 78.5247 12.28 78.5074 12.5034C78.5074 12.7096 78.4901 12.9245 78.4556 13.1479H67.9055V10.905H74.5673C74.5328 10.1832 74.2649 9.60742 73.7638 9.17775C73.2799 8.73089 72.6751 8.50746 71.9493 8.50746C71.3963 8.50746 70.8951 8.63636 70.4458 8.89417C69.9965 9.15197 69.6336 9.53867 69.3571 10.0543C69.0979 10.5699 68.9683 11.223 68.9683 12.0136V12.787C68.9683 13.3885 69.0806 13.9213 69.3053 14.3853C69.5472 14.8494 69.8842 15.2103 70.3162 15.4681C70.7655 15.7259 71.2926 15.8548 71.8974 15.8548C72.4677 15.8548 72.9343 15.7431 73.2972 15.5197C73.6774 15.2791 73.9711 14.9783 74.1785 14.6174H78.1445C77.9026 15.4423 77.4878 16.19 76.9003 16.8602C76.3127 17.5133 75.5956 18.0375 74.7488 18.4328C73.902 18.8109 72.9688 19 71.9493 19Z" fill="white"/>
</svg>
